<svg xmlns="http://www.w3.org/2000/svg" width="264" height="70" viewBox="0 0 264 70"><defs><style>.a{fill:#302525;}.a,.b{font-size:32px;font-family:OpenSans-Semibold, Open Sans;font-weight:600;}.b,.d{fill:#fff;}.c{opacity:0.93;}.e{fill:#3391d4;}</style></defs><g transform="translate(-576 266)"><g transform="translate(-99 -2)"><text class="a" transform="translate(726 -251)"><tspan x="0" y="34">Express</tspan></text><text class="b" transform="translate(846 -251)"><tspan x="0" y="34">Cargo</tspan></text><g transform="translate(382 -187)"><g class="c" transform="translate(-820.54 3145)"><g transform="translate(1113.54 -3222)"><rect class="d" width="51" height="39" transform="translate(0 15)"/><path class="d" d="M25.5,0,51,15H0Z"/><path class="d" d="M25.5,0,51,16H0Z" transform="translate(51 70) rotate(180)"/></g><g transform="translate(1119.247 -3212.11)"><path class="e" d="M2.258,0l38.6,3.735-2.34,4.053L0,3.911Z" transform="translate(0 20.431) rotate(-30)"/><path class="e" d="M0,31.217H0V15.743L26.582,4.058,36.325,0V4.277L4.433,18.726v6.332L36.326,10.619v3.713L0,31.217Z" transform="translate(1.875 14.394)"/></g></g></g></g></g></svg>